<svg viewBox="0 0 300 222.0978" width="5000px" height="3701.6298929850263px" xmlns="http://www.w3.org/2000/svg" xmlns:xlink="http://www.w3.org/1999/xlink" preserveAspectRatio="none"><defs></defs><style>.aD6z1nYkhcolorpxuxxvuSZS {fill:#000000;fill-opacity:1;}.aLgOaV3zRcolors-0pxuxxvuSZS {fill:#000000;fill-opacity:1;}.aVWI8GrTLCcolors-0pxuxxvuSZS {fill:#000000;fill-opacity:1;}</style><g opacity="1" transform="rotate(0 54.919399999999996 34.0727)">
        <svg width="190.1895" height="99.8177" x="54.919399999999996" y="34.0727" version="1.1" preserveAspectRatio="none" viewBox="5 26.381999969482425 89.99999237060547 47.2349967956543">
          <g transform="matrix(1 0 0 1 0 0)" class="aLgOaV3zRcolors-0pxuxxvuSZS"><path d="M45.697,70.684c-0.375,0-0.68,0.305-0.68,0.682v0.001C45.018,70.988,45.322,70.684,45.697,70.684z"></path><path d="M50,27.314c0.375,0,0.68,0.305,0.68,0.68v0C50.68,27.618,50.375,27.313,50,27.314  c-0.376-0.001-0.68,0.304-0.68,0.679v0C49.32,27.619,49.625,27.314,50,27.314z"></path><path d="M54.305,70.684c0.375,0,0.677,0.305,0.678,0.683v-0.001C54.982,70.988,54.68,70.684,54.305,70.684z"></path><path d="M86.629,69.109c0.109-0.227,0.176-0.478,0.176-0.746V28.107c0-0.953-0.771-1.725-1.725-1.725H14.92  c-0.953,0-1.725,0.772-1.725,1.725v40.256c0,0.269,0.066,0.52,0.176,0.746H5v2.783c0,0.953,0.772,1.725,1.725,1.725h86.548  c0.953,0,1.727-0.771,1.727-1.725v-2.783H86.629z M49.32,27.994L49.32,27.994c0-0.375,0.304-0.681,0.68-0.681  c0.375,0,0.68,0.305,0.68,0.68v0v0c0,0.375-0.304,0.68-0.68,0.68S49.32,28.37,49.32,27.994L49.32,27.994z M16.142,29.708h67.715  v36.571H16.142V29.708z M54.982,71.366L54.982,71.366c0,0.376-0.303,0.681-0.678,0.681h-8.608c-0.375,0-0.68-0.305-0.68-0.68v-0.001  v-0.001c0-0.377,0.305-0.682,0.68-0.682h8.608C54.68,70.684,54.982,70.988,54.982,71.366L54.982,71.366z"></path><path d="M35.832,46.654c-0.222,1.125-0.422,2.229-0.563,3.354h-0.04c-0.201-1.125-0.462-2.229-0.723-3.333l-0.984-3.916h-2.41  l-1.044,4.036c-0.241,0.964-0.522,2.088-0.723,3.213h-0.04c-0.161-1.125-0.361-2.209-0.562-3.233l-0.783-4.016v-0.001h-3.115  l2.852,9.819h2.872l0.984-3.454c0.262-0.924,0.462-1.827,0.643-3.052h0.04c0.202,1.205,0.382,2.088,0.623,3.052l0.924,3.454h2.872  l3.012-9.819h-2.992L35.832,46.654z"></path><path d="M51.455,46.654c-0.221,1.125-0.422,2.229-0.563,3.354h-0.041c-0.199-1.125-0.461-2.229-0.723-3.333l-0.984-3.916h-2.41  l-1.044,4.036c-0.241,0.964-0.522,2.088-0.723,3.213h-0.04c-0.161-1.125-0.361-2.209-0.562-3.233l-0.783-4.016v-0.001h-3.115  l2.852,9.819h2.872l0.984-3.454c0.262-0.924,0.462-1.827,0.643-3.052h0.04c0.202,1.205,0.382,2.088,0.623,3.052l0.924,3.454h2.872  l3.014-9.819h-2.992L51.455,46.654z"></path><path d="M67.079,46.654c-0.222,1.125-0.422,2.229-0.563,3.354h-0.039c-0.201-1.125-0.463-2.229-0.725-3.333l-0.982-3.916h-2.41  l-1.045,4.036c-0.24,0.964-0.521,2.088-0.723,3.213h-0.039c-0.162-1.125-0.363-2.209-0.563-3.233l-0.783-4.016v-0.001h-3.113  l2.852,9.819h2.871l0.984-3.454c0.262-0.924,0.463-1.827,0.643-3.052h0.041c0.201,1.205,0.382,2.088,0.621,3.052l0.924,3.454h2.873  l3.013-9.819h-2.992L67.079,46.654z"></path><path d="M72.963,49.084c-1.064,0-1.809,0.784-1.809,1.867c0,1.064,0.744,1.848,1.787,1.848c1.086,0,1.809-0.783,1.809-1.848  C74.75,49.848,74.027,49.084,72.963,49.084z"></path></g>
        </svg>
      </g><g opacity="1" transform="rotate(0 0 164.7679)">
        <svg width="300" height="57.3299" x="0" y="164.7679" version="1.1" preserveAspectRatio="none" viewBox="1.4258 -29.5117 157.9883 30.1953">
          <g transform="matrix(1 0 0 1 0 0)" class="aD6z1nYkhcolorpxuxxvuSZS"><path transform="" stroke="none" d="M12.71 0L1.43 0L1.43-0.88L4.43-1.07L4.43-26.80L1.43-26.99L1.43-27.87L11.88-27.87Q13.55-27.87 14.93-27.71Q16.31-27.56 17.66-27.14Q19.00-26.72 19.91-26.04Q20.82-25.35 21.38-24.23Q21.93-23.11 21.93-21.60L21.93-21.60Q21.93-20.41 21.41-19.40Q20.88-18.40 20.07-17.73Q19.26-17.07 18.18-16.55Q17.11-16.04 16.11-15.76Q15.12-15.49 14.12-15.35L14.12-15.35L14.12-15.27Q16.09-15.27 17.75-14.81Q19.41-14.36 20.65-13.46Q21.89-12.56 22.60-11.10Q23.30-9.65 23.30-7.79L23.30-7.79Q23.30-6.11 22.70-4.78Q22.09-3.44 21.07-2.56Q20.06-1.68 18.68-1.09Q17.30-0.51 15.82-0.25Q14.34 0 12.71 0L12.71 0ZM9.43-14.41L9.43-1.27Q10.49-1.07 11.46-1.07L11.46-1.07Q14.57-1.07 16.34-2.87Q18.11-4.67 18.11-7.75L18.11-7.75Q18.11-11.05 16.28-12.80Q14.45-14.55 11.23-14.55L11.23-14.55Q10.31-14.55 9.43-14.41L9.43-14.41ZM9.43-26.60L9.43-15.74Q10.25-15.63 10.94-15.63L10.94-15.63Q16.86-15.63 16.86-21.48L16.86-21.48Q16.86-23.98 15.53-25.39Q14.20-26.80 11.46-26.80L11.46-26.80Q10.49-26.80 9.43-26.60L9.43-26.60Z"></path>
    <path transform="" stroke="none" d="M28.38-18.05L25.98-18.05L25.98-18.85L30.06-19.28L32.81-20L33.09-19.43L33.09-16.07L33.16-16.07Q33.55-16.86 34.12-17.60Q34.69-18.34 35.36-18.92Q36.04-19.49 36.80-19.84Q37.56-20.20 38.34-20.20L38.34-20.20Q39.86-20.20 40.69-19.38Q41.52-18.57 41.52-17.23L41.52-17.23Q41.52-16.66 41.35-16.18Q41.17-15.70 40.85-15.35Q40.53-15 40.07-14.79Q39.61-14.59 39.06-14.59L39.06-14.59Q38.48-14.59 38.01-14.79Q37.54-14.98 37.22-15.31Q36.89-15.64 36.72-16.08Q36.54-16.52 36.54-17.03L36.54-17.03Q36.54-18.07 36.97-18.55L36.97-18.55L36.97-18.67Q36.27-18.52 35.60-17.93Q34.92-17.34 34.38-16.34Q33.83-15.33 33.50-13.92Q33.16-12.50 33.16-10.72L33.16-10.72L33.16-1.00L35.18-0.80L35.18 0L26.37 0L26.37-0.80L28.38-1.00L28.38-18.05Z"></path>
    <path transform="" stroke="none" d="M45.33-18.05L42.93-18.05L42.93-18.85L47.01-19.28L49.77-20L50.12-19.43L50.12-1.00L52.13-0.80L52.13 0L43.32 0L43.32-0.80L45.33-1.00L45.33-18.05ZM45.06-26.93L45.06-26.93Q45.06-27.48 45.26-27.95Q45.47-28.42 45.82-28.77Q46.17-29.12 46.64-29.32Q47.11-29.51 47.64-29.51L47.64-29.51Q48.16-29.51 48.63-29.31Q49.10-29.10 49.46-28.75Q49.82-28.40 50.03-27.93Q50.23-27.46 50.23-26.93L50.23-26.93Q50.23-26.41 50.03-25.94Q49.82-25.47 49.47-25.11Q49.12-24.75 48.65-24.54Q48.18-24.34 47.64-24.34L47.64-24.34Q47.09-24.34 46.62-24.54Q46.15-24.75 45.80-25.10Q45.45-25.45 45.25-25.92Q45.06-26.39 45.06-26.93Z"></path>
    <path transform="" stroke="none" d="M54.98-13.44L54.98-13.44Q54.98-15.61 55.45-17.71Q55.92-19.82 56.94-21.80Q57.97-23.77 59.45-25.26Q60.94-26.76 63.13-27.66Q65.31-28.55 67.93-28.55L67.93-28.55Q70.98-28.55 73.30-26.88Q75.63-25.21 75.63-22.93L75.63-22.93Q75.63-21.78 74.89-20.96Q74.16-20.14 72.89-20.14L72.89-20.14Q71.68-20.14 70.92-20.89Q70.16-21.64 70.16-22.79L70.16-22.79Q70.16-23.93 70.88-24.70Q71.60-25.47 72.68-25.47L72.68-25.47Q72.89-25.47 72.99-25.45L72.99-25.45L72.99-25.53Q72.70-26.07 71.41-26.76Q70.12-27.44 68.30-27.44L68.30-27.44Q64.75-27.44 62.46-23.75Q60.18-20.06 60.18-14.00L60.18-14.00Q60.18-11.41 60.63-9.09Q61.07-6.78 61.96-4.88Q62.85-2.99 64.36-1.87Q65.86-0.74 67.79-0.74L67.79-0.74Q70.57-0.74 72.63-2.39Q74.69-4.04 75.82-6.62L75.82-6.62L76.74-6.19Q73.95 0.68 67.34 0.68L67.34 0.68Q64.47 0.68 62.27-0.12Q60.06-0.92 58.70-2.24Q57.34-3.55 56.48-5.43Q55.63-7.30 55.30-9.24Q54.98-11.17 54.98-13.44Z"></path>
    <path transform="" stroke="none" d="M78.87-9.69L78.87-9.69Q78.87-12.64 80.01-15.04Q81.15-17.44 83.21-18.82Q85.27-20.20 87.87-20.20L87.87-20.20Q90.02-20.20 91.75-19.31Q93.48-18.42 94.52-16.93Q95.57-15.45 96.12-13.62Q96.68-11.80 96.68-9.80L96.68-9.80Q96.68-6.93 95.59-4.57Q94.49-2.21 92.45-0.81Q90.41 0.59 87.83 0.59L87.83 0.59Q85.55 0.59 83.80-0.22Q82.05-1.04 80.99-2.47Q79.92-3.91 79.39-5.72Q78.87-7.54 78.87-9.69ZM83.87-9.92L83.87-9.92Q83.87-7.75 84.08-6.04Q84.30-4.34 84.75-3.02Q85.20-1.70 85.96-1.00Q86.72-0.29 87.75-0.29L87.75-0.29Q91.68-0.29 91.68-9.69L91.68-9.69Q91.68-12.05 91.49-13.75Q91.31-15.45 90.87-16.75Q90.43-18.05 89.65-18.68Q88.87-19.32 87.75-19.32L87.75-19.32Q86.72-19.32 85.96-18.61Q85.20-17.91 84.75-16.62Q84.30-15.33 84.08-13.67Q83.87-12.01 83.87-9.92Z"></path>
    <path transform="" stroke="none" d="M99.82-9.32L99.82-9.32Q99.82-11.02 100.14-12.58Q100.45-14.14 101.13-15.54Q101.82-16.93 102.81-17.96Q103.81-18.98 105.26-19.59Q106.72-20.20 108.48-20.20L108.48-20.20Q109.22-20.20 110.22-19.95Q111.23-19.71 111.84-19.20L111.84-19.20L111.84-26.33L109.43-26.33L109.43-27.13L113.52-27.56L116.27-28.28L116.64-27.71L116.64-1.00L118.63-0.80L118.63 0L112.11 0L111.86-2.77L111.82-2.77Q110.68-0.84 109.45-0.13Q108.22 0.59 106.50 0.59L106.50 0.59Q106.05 0.59 105.55 0.49Q105.04 0.39 104.38 0.11Q103.71-0.18 103.10-0.62Q102.48-1.05 101.88-1.84Q101.27-2.62 100.82-3.61Q100.37-4.61 100.10-6.08Q99.82-7.56 99.82-9.32ZM104.82-9.51L104.82-9.51Q104.82-1.05 108.32-1.05L108.32-1.05Q109.71-1.05 110.77-2.71Q111.84-4.38 111.84-6.27L111.84-6.27L111.84-18.24Q110.72-19.08 109.36-19.08L109.36-19.08Q108.46-19.08 107.74-18.71Q107.03-18.34 106.56-17.77Q106.09-17.21 105.76-16.34Q105.43-15.47 105.25-14.67Q105.08-13.87 104.97-12.83Q104.86-11.80 104.84-11.09Q104.82-10.39 104.82-9.51Z"></path>
    <path transform="" stroke="none" d="M121.41-9.80L121.41-9.80Q121.41-11.33 121.70-12.78Q121.99-14.24 122.66-15.59Q123.32-16.93 124.28-17.95Q125.23-18.96 126.65-19.58Q128.07-20.20 129.79-20.20L129.79-20.20Q131.41-20.20 132.70-19.74Q133.98-19.28 134.84-18.46Q135.70-17.64 136.27-16.46Q136.84-15.27 137.08-13.90Q137.32-12.52 137.32-10.88L137.32-10.88L136.80-10.39L126.41-10.39L126.41-9.20Q126.41-0.68 131.25-0.68L131.25-0.68Q134.69-0.68 136.74-4.12L136.74-4.12L137.50-3.65Q134.98 0.59 130.33 0.59L130.33 0.59Q125.84 0.59 123.62-2.19Q121.41-4.96 121.41-9.80ZM126.41-11.27L126.41-11.27L132.71-11.52Q132.77-12.52 132.77-13.44L132.77-13.44Q132.77-16.27 132.10-17.79Q131.43-19.32 129.86-19.32L129.86-19.32Q128.93-19.32 128.25-18.70Q127.58-18.09 127.21-16.93Q126.84-15.78 126.65-14.42Q126.46-13.07 126.41-11.27Z"></path>
    <path transform="" stroke="none" d="M140.61-9.32L140.61-9.32Q140.61-11.02 140.92-12.58Q141.23-14.14 141.91-15.54Q142.60-16.93 143.59-17.96Q144.59-18.98 146.04-19.59Q147.50-20.20 149.26-20.20L149.26-20.20Q150-20.20 151.01-19.95Q152.01-19.71 152.62-19.20L152.62-19.20L152.62-26.33L150.21-26.33L150.21-27.13L154.30-27.56L157.05-28.28L157.42-27.71L157.42-1.00L159.41-0.80L159.41 0L152.89 0L152.64-2.77L152.60-2.77Q151.46-0.84 150.23-0.13Q149.00 0.59 147.29 0.59L147.29 0.59Q146.84 0.59 146.33 0.49Q145.82 0.39 145.16 0.11Q144.49-0.18 143.88-0.62Q143.26-1.05 142.66-1.84Q142.05-2.62 141.60-3.61Q141.15-4.61 140.88-6.08Q140.61-7.56 140.61-9.32ZM145.61-9.51L145.61-9.51Q145.61-1.05 149.10-1.05L149.10-1.05Q150.49-1.05 151.55-2.71Q152.62-4.38 152.62-6.27L152.62-6.27L152.62-18.24Q151.50-19.08 150.14-19.08L150.14-19.08Q149.24-19.08 148.53-18.71Q147.81-18.34 147.34-17.77Q146.88-17.21 146.54-16.34Q146.21-15.47 146.04-14.67Q145.86-13.87 145.75-12.83Q145.64-11.80 145.63-11.09Q145.61-10.39 145.61-9.51Z"></path>
    </g>
        </svg>
      </g><g opacity="1" transform="rotate(-43.2 38.661399999999986 43.39789999999999)">
        <svg width="63.3965" height="35.556" x="38.661399999999986" y="43.39789999999999" version="1.1" preserveAspectRatio="none" viewBox="20 55.13199615478515 160.0006103515625 89.73633575439453">
          <g transform="matrix(1 0 0 1 0 0)"><g><path d="M48.152 138.543c-12-22.403-21.518-50.331-28.152-76.39 6.321 7.39 14.297 14.974 22.115 19.096 7.817 4.128 10.408 8.484 17.092 1.686 5.565-5.659 13.153-21.284 16.247-25.839 6.445 10.15 16.903 22.607 25.307 29.783 7.435-11.597 18.161-21.075 25.103-31.747 2.651 12.621 13.899 29.072 19.514 30.514 2.85.731 5.57-2.064 8.151-3.829 8.792-5.992 17.584-11.99 26.377-17.982 1.606 25.004-17.674 50.073-24.258 73.585-1.044 3.725-15.67 4.212-18.783 4.496-16.903 1.517-33.045.875-49.948 2.392-14.512 1.302-35.732.7-38.765-5.765" data-color="1" class="aVWI8GrTLCcolors-0pxuxxvuSZS"></path></g></g>
        </svg>
      </g></svg>